<svg width="41" height="47" viewBox="0 0 41 47" fill="none" xmlns="http://www.w3.org/2000/svg">
<g clip-path="url(#clip0_23_169)">
<path d="M20 46.1993C19.3789 46.1993 18.7992 46.0295 18.2609 45.7325L12.7536 42.3794C11.9255 41.9126 12.3395 41.7428 12.588 41.6579C13.7059 41.2759 13.913 41.1911 15.0723 40.5118C15.1967 40.427 15.3623 40.4694 15.4864 40.5543L19.7102 43.1434C19.8758 43.2282 20.0828 43.2282 20.207 43.1434L36.7289 33.3391C36.8945 33.2542 36.9773 33.0844 36.9773 32.8722V13.3058C36.9773 13.0936 36.8945 12.9238 36.7289 12.8389L20.207 3.0769C20.0414 2.99202 19.8344 2.99202 19.7102 3.0769L3.18828 12.8391C3.02266 12.924 2.93984 13.1362 2.93984 13.3059V32.8722C2.93984 33.042 3.02266 33.2542 3.18828 33.3391L7.70187 36.0129C10.145 37.2861 11.6769 35.8007 11.6769 34.3152V15.0034C11.6769 14.7488 11.8841 14.4941 12.1739 14.4941H14.2858C14.5342 14.4941 14.7827 14.7063 14.7827 15.0034V34.3151C14.7827 37.6681 13.002 39.6204 9.89641 39.6204C8.94406 39.6204 8.19875 39.6204 6.08703 38.5594L1.73906 36.0129C0.6625 35.3761 0 34.1877 0 32.9145V13.3484C0 12.0751 0.6625 10.8868 1.73906 10.25L18.2609 0.445696C19.2961 -0.148484 20.7039 -0.148484 21.7391 0.445696L38.2609 10.25C39.3375 10.8866 40 12.075 40 13.3484V32.9147C40 34.1879 39.3375 35.3763 38.2609 36.0129L21.7391 45.8175C21.2008 46.0721 20.5797 46.1995 20 46.1995V46.1993ZM25.0931 32.7447C17.8467 32.7447 16.3561 29.3494 16.3561 26.4632C16.3561 26.2086 16.5631 25.9539 16.853 25.9539H19.0061C19.2545 25.9539 19.4617 26.1237 19.4617 26.3784C19.793 28.6278 20.7453 29.7314 25.1345 29.7314C28.6128 29.7314 30.1036 28.925 30.1036 27.0151C30.1036 25.9115 29.6895 25.1051 24.265 24.5532C19.7516 24.0864 16.9358 23.0678 16.9358 19.3754C16.9358 15.9373 19.7514 13.9001 24.472 13.9001C29.7722 13.9001 32.3809 15.7675 32.7122 19.8421C32.7122 19.9694 32.6708 20.0967 32.588 20.224C32.5052 20.3089 32.3809 20.3938 32.2567 20.3938H30.1036C29.8964 20.3938 29.6895 20.224 29.648 20.0118C29.1511 17.6776 27.8675 16.9136 24.472 16.9136C20.6627 16.9136 20.207 18.2717 20.207 19.2903C20.207 20.5213 20.7453 20.9031 25.8798 21.5822C30.9731 22.2612 33.3747 23.2375 33.3747 26.8877C33.3333 30.6227 30.352 32.7447 25.0931 32.7447Z" fill="#539E43"/>
</g>
<defs>
<clipPath id="clip0_23_169">
<rect width="41" height="46.2852" fill="white"/>
</clipPath>
</defs>
</svg>
