<?xml version="1.0" standalone="no"?>
<!DOCTYPE svg PUBLIC "-//W3C//DTD SVG 20010904//EN"
 "http://www.w3.org/TR/2001/REC-SVG-20010904/DTD/svg10.dtd">
<svg version="1.0" xmlns="http://www.w3.org/2000/svg"
 width="700.000000pt" height="700.000000pt" viewBox="0 0 700.000000 700.000000"
 preserveAspectRatio="xMidYMid meet">
<metadata>
Created by potrace 1.14, written by Peter Selinger 2001-2017
</metadata>
<g transform="translate(0.000000,700.000000) scale(0.100000,-0.100000)"
fill="#000000" stroke="none">
<path d="M3115 6223 c-367 -46 -606 -118 -869 -265 -400 -223 -714 -559 -922
-983 -65 -135 -150 -352 -141 -362 8 -7 25 24 47 85 34 93 34 70 0 -36 -65
-201 -100 -416 -99 -602 2 -139 7 -118 28 103 13 138 42 294 76 410 30 103 86
259 91 254 2 -2 -7 -34 -21 -70 -72 -193 -124 -464 -130 -682 l-4 -150 14 163
c30 355 102 614 246 888 105 200 214 350 363 499 343 343 696 524 1186 610
145 26 166 27 339 20 445 -16 846 -157 1196 -421 387 -291 672 -736 775 -1211
67 -307 63 -669 -11 -983 -80 -347 -273 -709 -502 -947 -89 -92 -44 -67 63 34
104 99 114 96 32 -10 -103 -135 -287 -297 -480 -423 -51 -34 -93 -65 -92 -70
1 -4 -32 -27 -74 -49 -88 -48 -108 -64 -51 -41 210 87 480 278 660 467 192
201 303 369 410 619 79 186 130 345 166 524 28 133 32 180 39 394 4 134 6 267
4 295 l-3 52 11 -45 c19 -73 15 -463 -6 -600 -43 -290 -101 -483 -211 -705
-91 -185 -183 -326 -310 -473 -370 -431 -900 -699 -1483 -752 l-97 -9 115 4
c98 4 186 16 355 49 17 3 10 -1 -15 -10 -59 -20 -301 -60 -420 -70 -85 -7 -90
-8 -50 -14 67 -11 253 6 397 35 665 134 1240 571 1547 1175 177 348 257 716
243 1120 -19 545 -182 983 -515 1381 -374 446 -918 735 -1504 798 -91 10 -326
13 -393 4z m532 -49 c-3 -3 -12 -4 -19 -1 -8 3 -5 6 6 6 11 1 17 -2 13 -5z
m60 -10 c-3 -3 -12 -4 -19 -1 -8 3 -5 6 6 6 11 1 17 -2 13 -5z m50 -10 c-3 -3
-12 -4 -19 -1 -8 3 -5 6 6 6 11 1 17 -2 13 -5z m40 -10 c-3 -3 -12 -4 -19 -1
-8 3 -5 6 6 6 11 1 17 -2 13 -5z m129 -35 c53 -17 94 -32 92 -34 -2 -2 -51 11
-108 30 -58 18 -99 34 -93 34 7 1 56 -13 109 -30z m624 -325 c0 -3 -13 4 -30
16 -16 12 -30 24 -30 26 0 3 14 -4 30 -16 17 -12 30 -24 30 -26z m31 -21 c13
-16 12 -17 -3 -4 -10 7 -18 15 -18 17 0 8 8 3 21 -13z m44 -33 c10 -11 16 -20
13 -20 -3 0 -13 9 -23 20 -10 11 -16 20 -13 20 3 0 13 -9 23 -20z m65 -55 c19
-19 32 -35 29 -35 -3 0 -20 16 -39 35 -19 19 -32 35 -29 35 3 0 20 -16 39 -35z
m85 -75 c21 -22 37 -40 34 -40 -3 0 -23 18 -44 40 -21 22 -37 40 -34 40 3 0
23 -18 44 -40z m379 -488 c43 -74 126 -245 126 -260 0 -4 -28 49 -63 118 -34
69 -75 146 -91 173 -15 26 -26 47 -23 47 3 0 26 -35 51 -78z m146 -307 c0 -5
-5 -3 -10 5 -5 8 -10 20 -10 25 0 6 5 3 10 -5 5 -8 10 -19 10 -25z m39 -115
c0 -8 -7 1 -14 20 -18 46 -17 64 0 25 8 -16 14 -37 14 -45z m108 -312 c-3 -8
-6 -5 -6 6 -1 11 2 17 5 13 3 -3 4 -12 1 -19z m30 -870 c-3 -8 -6 -5 -6 6 -1
11 2 17 5 13 3 -3 4 -12 1 -19z m-10 -50 c-3 -8 -6 -5 -6 6 -1 11 2 17 5 13 3
-3 4 -12 1 -19z m-276 -655 c-5 -10 -17 -27 -26 -38 -16 -19 -17 -19 -3 5 26
46 29 50 34 50 3 0 0 -8 -5 -17z m-57 -90 c-88 -136 -259 -331 -386 -440 -108
-93 -258 -203 -258 -190 0 2 51 42 113 88 144 107 350 313 457 457 79 105 114
146 74 85z"/>
<path d="M4255 5489 c-176 -95 -485 -391 -724 -694 -103 -129 -241 -329 -351
-505 -57 -91 -104 -166 -104 -167 -1 -1 -42 -7 -91 -13 -152 -18 -241 -77
-216 -144 7 -18 31 -35 81 -58 38 -18 70 -35 70 -39 0 -3 -55 -100 -121 -215
-240 -413 -446 -812 -574 -1111 -48 -111 -52 -148 -18 -141 19 3 23 10 196
368 146 302 426 817 576 1059 14 24 436 -165 576 -257 89 -59 226 -190 277
-265 84 -123 101 -209 82 -404 -19 -194 -19 -193 10 -193 15 0 34 12 50 31 23
28 26 38 25 112 0 45 -4 105 -8 132 -15 89 29 483 95 857 15 84 30 156 33 160
3 4 39 2 79 -3 40 -6 87 -9 105 -7 31 3 31 4 -28 34 -33 18 -79 37 -102 44
-36 11 -42 17 -38 34 3 12 27 128 55 259 55 260 70 327 166 738 35 152 64 290
64 307 0 43 -44 91 -90 98 -25 4 -47 -1 -75 -17z m109 -45 c13 -35 3 -93 -68
-380 -72 -291 -136 -571 -192 -843 l-28 -133 -75 6 c-42 3 -247 11 -456 17
-209 6 -381 12 -383 14 -6 6 158 249 256 380 181 242 412 503 644 731 213 209
283 257 302 208z m-370 -1420 l68 -6 -6 -32 c-27 -131 -78 -460 -93 -589 -10
-86 -20 -157 -23 -157 -3 1 -16 23 -29 49 -59 123 -204 255 -402 366 -35 20
-158 81 -274 137 -115 55 -211 101 -213 103 -2 1 16 35 40 75 l43 72 410 -6
c226 -3 441 -9 479 -12z m-995 -31 c-41 -70 -42 -70 -104 -40 -30 15 -55 31
-55 36 0 17 71 38 138 40 l44 1 -23 -37z"/>
<path d="M1395 2845 c139 -245 374 -508 600 -670 56 -40 33 -17 -50 50 -177
143 -360 345 -483 535 -83 127 -111 162 -67 85z"/>
<path d="M4640 2428 c-25 -22 -36 -36 -25 -30 19 10 84 72 74 72 -2 -1 -24
-19 -49 -42z"/>
<path d="M196 1301 c-3 -5 -44 -112 -90 -238 -47 -125 -89 -240 -95 -255 -10
-28 -10 -28 28 -28 38 0 39 1 61 60 l23 61 120 -3 120 -3 20 -57 c18 -57 19
-58 58 -58 l39 0 -29 78 c-15 42 -59 161 -97 265 l-69 187 -42 0 c-23 0 -44
-4 -47 -9z m92 -199 c23 -65 42 -121 42 -125 0 -4 -41 -7 -91 -7 -69 0 -90 3
-87 13 3 6 22 63 44 125 21 61 41 112 44 112 3 0 25 -53 48 -118z"/>
<path d="M697 1303 c-4 -3 -7 -123 -7 -265 l0 -258 40 0 40 0 0 121 0 120 37
-3 c36 -3 39 -6 103 -118 l66 -115 42 -3 c23 -2 42 -1 42 2 0 3 -31 56 -70
118 l-70 113 29 12 c16 7 41 27 56 44 24 30 27 39 23 96 -3 53 -9 68 -33 93
-16 17 -45 35 -64 40 -40 11 -224 14 -234 3z m237 -84 c19 -15 26 -30 26 -55
0 -69 -36 -94 -136 -94 l-54 0 0 85 0 85 69 0 c54 0 74 -4 95 -21z"/>
<path d="M1290 1045 l0 -265 35 0 35 0 2 207 3 207 135 -206 135 -207 43 -1
42 0 0 265 0 265 -35 0 -35 0 0 -205 c0 -113 -3 -205 -7 -204 -5 0 -68 92
-142 205 l-134 204 -38 0 -39 0 0 -265z"/>
<path d="M2125 1298 c-99 -267 -185 -503 -185 -510 0 -5 16 -8 36 -6 35 3 38
6 58 61 l20 58 120 -3 120 -3 20 -57 c20 -57 22 -58 58 -58 21 0 38 2 38 4 0
3 -43 120 -95 262 -52 141 -95 259 -95 261 0 10 -91 1 -95 -9z m110 -235 l33
-93 -95 0 c-87 0 -95 2 -88 18 4 9 20 53 35 97 15 44 33 94 40 110 l12 30 15
-35 c8 -19 30 -76 48 -127z"/>
<path d="M2570 1303 c0 -4 43 -123 94 -263 l94 -255 42 0 42 0 94 255 c51 140
94 259 94 263 0 5 -17 7 -37 5 l-38 -3 -75 -212 c-41 -117 -77 -213 -80 -213
-3 0 -39 96 -80 213 l-75 212 -37 3 c-21 2 -38 0 -38 -5z"/>
<path d="M3500 1275 l0 -35 65 0 65 0 0 -230 0 -230 40 0 40 0 0 230 0 230 65
0 65 0 0 35 0 35 -170 0 -170 0 0 -35z"/>
<path d="M4050 1045 l0 -265 40 0 40 0 0 115 0 115 130 0 130 0 0 -115 0 -115
35 0 35 0 0 265 0 265 -35 0 -35 0 0 -115 0 -115 -130 0 -130 0 0 115 0 115
-40 0 -40 0 0 -265z"/>
<path d="M4780 1058 c-51 -139 -95 -259 -97 -265 -4 -9 7 -13 33 -13 38 0 39
1 60 58 l20 57 121 3 121 3 19 -58 c19 -55 21 -58 56 -61 26 -2 37 1 36 10 0
7 -42 126 -93 263 l-92 250 -46 3 -45 3 -93 -253z m189 33 c22 -63 39 -116 37
-118 -2 -2 -43 -2 -92 -1 l-89 3 44 123 c24 68 47 120 51 115 4 -4 26 -59 49
-122z"/>
<path d="M5370 1045 l0 -265 35 0 34 0 3 118 c3 117 3 117 28 117 19 0 43 -24
115 -117 l90 -118 49 0 48 0 -34 43 c-88 108 -178 226 -178 232 0 4 41 57 92
118 50 62 96 118 101 125 7 9 -1 12 -36 12 l-45 0 -88 -110 c-75 -93 -93 -110
-114 -108 -25 3 -25 4 -28 111 l-3 107 -34 0 -35 0 0 -265z"/>
<path d="M5972 1103 c3 -176 6 -213 21 -241 27 -49 85 -83 156 -89 80 -8 156
27 189 86 21 36 22 51 22 245 l0 206 -35 0 -35 0 0 -192 c0 -175 -2 -196 -20
-226 -23 -37 -54 -52 -112 -52 -32 0 -47 7 -74 34 l-34 34 0 201 0 201 -41 0
-40 0 3 -207z"/>
<path d="M6630 1046 l0 -266 35 0 34 0 3 118 3 117 35 0 c34 0 36 -3 101 -115
l67 -115 46 -3 45 -3 -73 118 -74 118 40 19 c95 45 98 196 4 252 -24 15 -56
19 -148 22 l-118 4 0 -266z m237 172 c25 -23 31 -74 13 -108 -13 -24 -62 -40
-126 -40 l-54 0 0 85 0 85 72 0 c60 0 76 -4 95 -22z"/>
</g>
</svg>
